<mxfile host="app.diagrams.net" modified="2023-09-12T01:04:11.409Z" agent="Mozilla/5.0 (Macintosh; Intel Mac OS X 10_15_7) AppleWebKit/537.36 (KHTML, like Gecko) Chrome/116.0.0.0 Safari/537.36" version="21.7.2" etag="0cSBU2PunepLeLg64fmF" type="github">
  <diagram name="Page-1" id="_3leyfWKbh2mdGG2vB7n">
    <mxGraphModel>
      <root>
        <mxCell id="0" />
        <mxCell id="1" parent="0" />
      </root>
    </mxGraphModel>
  </diagram>
</mxfile>
